<?xml version="1.0" encoding="utf-8"?>
<svg xmlns="http://www.w3.org/2000/svg" width="148" height="148" class="segno"><g transform="scale(4)"><path fill="#fff" d="M0 0h37v37h-37z"/><path class="qrline" stroke="#111" d="M2 2.5h7m1 0h1m1 0h1m1 0h1m1 0h1m1 0h3m2 0h2m3 0h7m-33 1h1m5 0h1m1 0h1m3 0h1m3 0h1m1 0h2m4 0h1m1 0h1m5 0h1m-33 1h1m1 0h3m1 0h1m1 0h1m1 0h3m3 0h1m4 0h1m2 0h1m1 0h1m1 0h3m1 0h1m-33 1h1m1 0h3m1 0h1m5 0h1m3 0h2m3 0h1m1 0h2m1 0h1m1 0h3m1 0h1m-33 1h1m1 0h3m1 0h1m1 0h1m2 0h1m1 0h3m2 0h2m2 0h1m3 0h1m1 0h3m1 0h1m-33 1h1m5 0h1m3 0h1m2 0h2m1 0h1m3 0h1m2 0h1m2 0h1m5 0h1m-33 1h7m1 0h1m1 0h1m1 0h1m1 0h1m1 0h1m1 0h1m1 0h1m1 0h1m1 0h1m1 0h7m-24 1h1m2 0h2m8 0h1m-23 1h1m2 0h7m1 0h2m1 0h2m1 0h1m5 0h3m2 0h1m1 0h3m-31 1h2m1 0h1m1 0h1m1 0h1m1 0h2m1 0h2m2 0h2m3 0h1m4 0h3m-30 1h1m1 0h4m3 0h3m1 0h3m1 0h1m1 0h1m2 0h2m1 0h1m1 0h5m-32 1h2m1 0h2m1 0h2m2 0h2m1 0h7m5 0h2m2 0h1m-31 1h2m2 0h4m1 0h2m2 0h2m1 0h1m3 0h1m3 0h1m1 0h2m4 0h1m-31 1h1m7 0h1m1 0h2m3 0h2m3 0h2m1 0h1m1 0h1m1 0h2m-31 1h1m2 0h2m1 0h3m1 0h2m1 0h1m1 0h1m3 0h3m4 0h1m2 0h2m-30 1h1m1 0h1m5 0h2m1 0h1m2 0h1m9 0h1m1 0h1m1 0h2m1 0h1m-32 1h1m3 0h2m5 0h1m5 0h3m1 0h1m1 0h6m-30 1h4m1 0h1m2 0h1m1 0h1m1 0h1m1 0h2m1 0h3m2 0h1m1 0h3m1 0h1m1 0h3m-32 1h2m1 0h3m1 0h10m1 0h1m2 0h2m1 0h1m1 0h1m1 0h2m1 0h1m-32 1h2m1 0h1m2 0h1m1 0h1m1 0h1m1 0h1m1 0h2m3 0h1m1 0h2m2 0h1m1 0h3m1 0h1m-33 1h1m2 0h6m7 0h3m5 0h1m2 0h1m1 0h1m1 0h1m-32 1h1m3 0h2m1 0h2m1 0h1m1 0h1m1 0h4m1 0h6m2 0h3m-30 1h1m3 0h1m1 0h1m2 0h3m1 0h1m1 0h2m4 0h3m1 0h2m4 0h2m-33 1h1m2 0h2m4 0h2m1 0h4m1 0h1m2 0h1m1 0h2m1 0h3m1 0h4m-33 1h2m1 0h1m2 0h1m1 0h1m1 0h2m1 0h4m2 0h2m2 0h7m1 0h1m-24 1h1m2 0h2m2 0h2m1 0h1m4 0h2m3 0h1m1 0h2m-32 1h7m1 0h2m1 0h1m2 0h2m1 0h1m1 0h1m1 0h4m1 0h1m1 0h1m1 0h1m-31 1h1m5 0h1m1 0h2m2 0h2m2 0h1m1 0h2m3 0h2m3 0h5m-33 1h1m1 0h3m1 0h1m1 0h2m1 0h1m7 0h2m1 0h7m2 0h1m-32 1h1m1 0h3m1 0h1m1 0h1m1 0h1m2 0h3m2 0h5m2 0h1m1 0h1m3 0h2m-33 1h1m1 0h3m1 0h1m2 0h2m1 0h2m1 0h1m1 0h1m1 0h1m1 0h2m1 0h1m2 0h2m1 0h3m-33 1h1m5 0h1m2 0h1m3 0h3m2 0h1m3 0h1m4 0h6m-33 1h7m1 0h4m1 0h1m2 0h2m1 0h1m3 0h3m1 0h2"/></g></svg>
